<svg xmlns="http://www.w3.org/2000/svg" viewBox="0 0 1200 500" role="img" aria-label="ACTIVA Énfasis Decorativo"><defs><linearGradient id="amberGrad" x1="0" y1="0" x2="1" y2="1"><stop offset="0%" stop-color="#F5B11A"/><stop offset="100%" stop-color="#E89A00"/></linearGradient><linearGradient id="tealGrad" x1="0" y1="0" x2="1" y2="1"><stop offset="0%" stop-color="#0E6F6B"/><stop offset="100%" stop-color="#075C59"/></linearGradient><linearGradient id="darkGrad" x1="0" y1="0" x2="1" y2="1"><stop offset="0%" stop-color="#1A1D21"/><stop offset="100%" stop-color="#252A30"/></linearGradient></defs><rect width="1200" height="500" fill="#FAF8F5"/><rect x="70" y="70" width="1060" height="360" rx="40" fill="#FFFFFF" stroke="#EFECE6" stroke-width="3"/><path d="M120 340 L420 120" stroke="#F5B11A" stroke-width="10" stroke-linecap="round"/><path d="M260 390 L620 120" stroke="#0E6F6B" stroke-width="7" stroke-linecap="round"/><circle cx="420" cy="120" r="15" fill="#F5B11A"/><circle cx="620" cy="120" r="12" fill="#0E6F6B"/><circle cx="780" cy="170" r="5" fill="#0E6F6B" opacity="0.25"/><circle cx="780" cy="225" r="5" fill="#0E6F6B" opacity="0.35"/><circle cx="780" cy="280" r="5" fill="#0E6F6B" opacity="0.45"/><circle cx="780" cy="335" r="5" fill="#0E6F6B" opacity="0.25"/><circle cx="835" cy="170" r="5" fill="#0E6F6B" opacity="0.35"/><circle cx="835" cy="225" r="5" fill="#0E6F6B" opacity="0.45"/><circle cx="835" cy="280" r="5" fill="#0E6F6B" opacity="0.25"/><circle cx="835" cy="335" r="5" fill="#0E6F6B" opacity="0.35"/><circle cx="890" cy="170" r="5" fill="#0E6F6B" opacity="0.45"/><circle cx="890" cy="225" r="5" fill="#0E6F6B" opacity="0.25"/><circle cx="890" cy="280" r="5" fill="#0E6F6B" opacity="0.35"/><circle cx="890" cy="335" r="5" fill="#0E6F6B" opacity="0.45"/><circle cx="945" cy="170" r="5" fill="#0E6F6B" opacity="0.25"/><circle cx="945" cy="225" r="5" fill="#0E6F6B" opacity="0.35"/><circle cx="945" cy="280" r="5" fill="#0E6F6B" opacity="0.45"/><circle cx="945" cy="335" r="5" fill="#0E6F6B" opacity="0.25"/><circle cx="1000" cy="170" r="5" fill="#0E6F6B" opacity="0.35"/><circle cx="1000" cy="225" r="5" fill="#0E6F6B" opacity="0.45"/><circle cx="1000" cy="280" r="5" fill="#0E6F6B" opacity="0.25"/><circle cx="1000" cy="335" r="5" fill="#0E6F6B" opacity="0.35"/></svg>