<svg xmlns="http://www.w3.org/2000/svg" viewBox="0 0 900 900" role="img" aria-label="ACTIVA"><defs><linearGradient id="goldGrad" x1="0" y1="0" x2="1" y2="1"><stop offset="0%" stop-color="#F5B11A"/><stop offset="100%" stop-color="#E89A00"/></linearGradient></defs><path d="M 328.40 367.50 L 424.40 93.28 L 488.40 93.28 L 597.20 367.50 L 533.20 367.50 L 456.40 169.45 L 389.20 337.03 Z M 302.80 437.58 L 398.80 394.92 L 389.20 431.48 L 290.00 465.00 Z" fill="url(#goldGrad)" fill-rule="evenodd"/><path d="M 125.80 606.25 L 152.80 525.39 L 170.80 525.39 L 201.40 606.25 L 183.40 606.25 L 161.80 547.85 L 142.90 597.27 Z M 118.60 626.91 L 145.60 614.34 L 142.90 625.12 L 115.00 635.00 Z" fill="#1A1D21" fill-rule="evenodd"/><path d="M273.6875 626.5C293.1875 626.5 308.6875 614.375 312.0625 595.0H300.625C297.4375 608.5 287.125 616.0 273.6875 616.0C254.0625 616.0 241.875 600.625 241.875 578.5C241.875 556.25 254.0625 540.875 273.6875 540.875C287.25 540.875 297.5625 548.4375 300.5625 562.0H312.0625C308.625 542.5625 293.1875 530.375 273.6875 530.375C247.875 530.375 230.625 550.3125 230.625 578.5C230.625 606.5 247.9375 626.5 273.6875 626.5Z" fill="#1A1D21"/><path d="M327.5625 541.875H357.9375V625.0H369.1875V541.875H399.4375V531.875H327.5625Z" fill="#1A1D21"/><path d="M430.0625 531.875H418.8125V625.0H430.0625Z" fill="#1A1D21"/><path d="M481.9375 625.0H494.6875L528.6875 531.875H516.9375L497.3125 588.0C495.4375 593.4375 492.5625 601.9375 488.5 614.6875C484.3125 601.9375 481.5 593.4375 479.5625 588.0L459.4375 531.875H447.5625Z" fill="#1A1D21"/><path d="M 554.78 607.25 L 579.38 534.83 L 595.78 534.83 L 623.66 607.25 L 607.26 607.25 L 587.58 554.95 L 570.36 599.20 Z" fill="#1A1D21" fill-rule="evenodd"/><path d="M20.613505859374982 745.4677734375H25.835673828124982V760.0H28.407451171874982V745.4677734375H33.60715820312498V743.2666015625H20.613505859374982Z" fill="#0E6F6B"/><path d="M43.47092773437498 760.0H46.03147460937498V753.67724609375H49.44553710937498C49.49045898437498 753.67724609375 49.54661132812498 753.67724609375 49.59153320312498 753.67724609375L52.98313476562498 760.0H55.89182617187498L52.20823242187498 753.2392578125C54.24094726562498 752.4755859375 55.26291992187498 750.7685546875 55.26291992187498 748.5224609375C55.26291992187498 745.43408203125 53.34250976562498 743.2666015625 49.46799804687498 743.2666015625H43.47092773437498ZM46.03147460937498 751.4873046875V745.45654296875H49.17600585937498C51.64670898437498 745.45654296875 52.66868164062498 746.6357421875 52.66868164062498 748.5224609375C52.66868164062498 750.39794921875 51.64670898437498 751.4873046875 49.19846679687498 751.4873046875Z" fill="#0E6F6B"/><path d="M64.09348632812498 760.0H66.86741210937498L68.36106445312498 755.58642578125H74.94211914062498L76.48069335937498 760.0H79.25461914062498L73.19016601562498 743.2666015625H70.04563476562498ZM69.09104492187498 753.45263671875 70.02317382812498 750.68994140625C70.43870117187498 749.40966796875 70.95530273437498 747.6689453125 71.60666992187498 745.27685546875C72.26926757812498 747.646484375 72.77463867187498 749.353515625 73.22385742187498 750.68994140625L74.18967773437498 753.45263671875Z" fill="#0E6F6B"/><path d="M88.68040039062498 760.0H91.27463867187498V751.07177734375C91.27463867187498 750.20703125 91.18479492187498 748.4775390625 91.08372070312498 746.37744140625C92.29661132812498 748.62353515625 92.93674804687498 749.7802734375 93.75657226562498 751.09423828125L99.40549804687498 760.0H102.37034179687498V743.2666015625H99.77610351562498V752.7900390625C99.77610351562498 753.755859375 99.82102539062498 755.31689453125 99.94456054687498 756.93408203125C99.20334960937498 755.328125 98.45090820312498 754.05908203125 97.93430664062498 753.22802734375L91.63401367187498 743.2666015625H88.68040039062498Z" fill="#0E6F6B"/><path d="M118.69163085937498 760.28076171875C122.62229492187498 760.28076171875 124.89084960937498 758.21435546875 124.89084960937498 755.373046875C124.89084960937498 752.35205078125 122.20676757812498 751.20654296875 120.07297851562498 750.65625L118.44456054687498 750.2294921875C117.16428710937498 749.892578125 115.43479492187498 749.29736328125 115.43479492187498 747.7138671875C115.43479492187498 746.298828125 116.71506835937498 745.265625 118.74778320312498 745.265625C120.64573242187498 745.265625 122.00461914062498 746.1416015625 122.17307617187498 747.6689453125H124.66624023437498C124.58762695312498 745.00732421875 122.24045898437498 743.0419921875 118.80393554687498 743.0419921875C115.43479492187498 743.0419921875 112.87424804687498 744.96240234375 112.87424804687498 747.85986328125C112.87424804687498 750.15087890625 114.49143554687498 751.5546875 117.23166992187498 752.28466796875L119.18577148437498 752.82373046875C120.98264648437498 753.306640625 122.36399414062498 753.87939453125 122.36399414062498 755.33935546875C122.36399414062498 756.95654296875 120.80295898437498 758.03466796875 118.68040039062498 758.03466796875C116.74875976562498 758.03466796875 115.13157226562498 757.18115234375 114.98557617187498 755.3505859375H112.41379882812498C112.57102539062498 758.4052734375 114.92942382812498 760.28076171875 118.69163085937498 760.28076171875Z" fill="#0E6F6B"/><path d="M134.93430664062498 760.0H137.49485351562498V753.037109375H144.59250976562498V750.84716796875H137.49485351562498V745.4677734375H145.34495117187498V743.2666015625H134.93430664062498Z" fill="#0E6F6B"/><path d="M162.46360351562498 760.224609375C166.79856445312498 760.224609375 169.99924804687498 756.990234375 169.99924804687498 751.64453125C169.99924804687498 746.2763671875 166.79856445312498 743.0419921875 162.46360351562498 743.0419921875C158.11741210937498 743.0419921875 154.90549804687498 746.2763671875 154.90549804687498 751.64453125C154.90549804687498 756.990234375 158.11741210937498 760.224609375 162.46360351562498 760.224609375ZM162.46360351562498 757.888671875C159.58860351562498 757.888671875 157.44358398437498 755.6875 157.44358398437498 751.64453125C157.44358398437498 747.59033203125 159.58860351562498 745.3779296875 162.46360351562498 745.3779296875C165.31614257812498 745.3779296875 167.46116210937498 747.5791015625 167.46116210937498 751.64453125C167.46116210937498 755.6875 165.31614257812498 757.888671875 162.46360351562498 757.888671875Z" fill="#0E6F6B"/><path d="M180.12131835937498 760.0H182.68186523437498V753.67724609375H186.09592773437498C186.14084960937498 753.67724609375 186.19700195312498 753.67724609375 186.24192382812498 753.67724609375L189.63352539062498 760.0H192.54221679687498L188.85862304687498 753.2392578125C190.89133789062498 752.4755859375 191.91331054687498 750.7685546875 191.91331054687498 748.5224609375C191.91331054687498 745.43408203125 189.99290039062498 743.2666015625 186.11838867187498 743.2666015625H180.12131835937498ZM182.68186523437498 751.4873046875V745.45654296875H185.82639648437498C188.29709960937498 745.45654296875 189.31907226562498 746.6357421875 189.31907226562498 748.5224609375C189.31907226562498 750.39794921875 188.29709960937498 751.4873046875 185.84885742187498 751.4873046875Z" fill="#0E6F6B"/><path d="M202.02415039062498 760.0H204.51731445312498V750.9931640625C204.51731445312498 749.712890625 204.46116210937498 747.56787109375 204.41624023437498 745.81591796875C205.05637695312498 747.88232421875 205.71897460937498 749.982421875 206.10081054687498 750.9931640625L209.57102539062498 760.0H211.76096679687498L215.18625976562498 750.9931640625C215.56809570312498 749.94873046875 216.26438476562498 747.79248046875 216.85959960937498 745.759765625C216.82590820312498 747.6240234375 216.76975585937498 749.7578125 216.76975585937498 750.9931640625V760.0H219.31907226562498V743.2666015625H215.52317382812498L211.92942382812498 752.86865234375C211.60374023437498 753.78955078125 211.07590820312498 755.65380859375 210.68284179687498 757.1474609375C210.30100585937498 755.6201171875 209.77317382812498 753.76708984375 209.44749023437498 752.86865234375L205.79758789062498 743.2666015625H202.02415039062498Z" fill="#0E6F6B"/><path d="M228.73362304687498 760.0H231.50754882812498L233.00120117187498 755.58642578125H239.58225585937498L241.12083007812498 760.0H243.89475585937498L237.83030273437498 743.2666015625H234.68577148437498ZM233.73118164062498 753.45263671875 234.66331054687498 750.68994140625C235.07883789062498 749.40966796875 235.59543945312498 747.6689453125 236.24680664062498 745.27685546875C236.90940429687498 747.646484375 237.41477539062498 749.353515625 237.86399414062498 750.68994140625L238.82981445312498 753.45263671875Z" fill="#0E6F6B"/><path d="M275.114658203125 760.224609375C279.449619140625 760.224609375 282.650302734375 756.990234375 282.650302734375 751.64453125C282.650302734375 746.2763671875 279.449619140625 743.0419921875 275.114658203125 743.0419921875C270.768466796875 743.0419921875 267.556552734375 746.2763671875 267.556552734375 751.64453125C267.556552734375 756.990234375 270.768466796875 760.224609375 275.114658203125 760.224609375ZM275.114658203125 757.888671875C272.239658203125 757.888671875 270.094638671875 755.6875 270.094638671875 751.64453125C270.094638671875 747.59033203125 272.239658203125 745.3779296875 275.114658203125 745.3779296875C277.967197265625 745.3779296875 280.112216796875 747.5791015625 280.112216796875 751.64453125C280.112216796875 755.6875 277.967197265625 757.888671875 275.114658203125 757.888671875Z" fill="#0E6F6B"/><path d="M292.772373046875 760.0H295.332919921875V754.1376953125H298.746982421875C302.632724609375 754.1376953125 304.564365234375 751.79052734375 304.564365234375 748.7021484375C304.564365234375 745.61376953125 302.643955078125 743.2666015625 298.769443359375 743.2666015625H292.772373046875ZM295.332919921875 751.97021484375V745.45654296875H298.477451171875C300.959384765625 745.45654296875 301.970126953125 746.8154296875 301.970126953125 748.7021484375C301.970126953125 750.5888671875 300.959384765625 751.97021484375 298.499912109375 751.97021484375Z" fill="#0E6F6B"/><path d="M321.503330078125 760.224609375C325.838291015625 760.224609375 329.038974609375 756.990234375 329.038974609375 751.64453125C329.038974609375 746.2763671875 325.838291015625 743.0419921875 321.503330078125 743.0419921875C317.157138671875 743.0419921875 313.945224609375 746.2763671875 313.945224609375 751.64453125C313.945224609375 756.990234375 317.157138671875 760.224609375 321.503330078125 760.224609375ZM321.503330078125 757.888671875C318.628330078125 757.888671875 316.483310546875 755.6875 316.483310546875 751.64453125C316.483310546875 747.59033203125 318.628330078125 745.3779296875 321.503330078125 745.3779296875C324.355869140625 745.3779296875 326.500888671875 747.5791015625 326.500888671875 751.64453125C326.500888671875 755.6875 324.355869140625 757.888671875 321.503330078125 757.888671875Z" fill="#0E6F6B"/><path d="M339.161044921875 760.0H341.721591796875V753.67724609375H345.135654296875C345.180576171875 753.67724609375 345.236728515625 753.67724609375 345.281650390625 753.67724609375L348.673251953125 760.0H351.581943359375L347.898349609375 753.2392578125C349.931064453125 752.4755859375 350.953037109375 750.7685546875 350.953037109375 748.5224609375C350.953037109375 745.43408203125 349.032626953125 743.2666015625 345.158115234375 743.2666015625H339.161044921875ZM341.721591796875 751.4873046875V745.45654296875H344.866123046875C347.336826171875 745.45654296875 348.358798828125 746.6357421875 348.358798828125 748.5224609375C348.358798828125 750.39794921875 347.336826171875 751.4873046875 344.888583984375 751.4873046875Z" fill="#0E6F6B"/><path d="M360.221591796875 745.4677734375H365.443759765625V760.0H368.015537109375V745.4677734375H373.215244140625V743.2666015625H360.221591796875Z" fill="#0E6F6B"/><path d="M389.749912109375 760.25830078125C393.747958984375 760.25830078125 396.398349609375 757.76513671875 396.398349609375 754.25V743.2666015625H393.826572265625V754.03662109375C393.826572265625 756.2939453125 392.265537109375 757.93359375 389.749912109375 757.93359375C387.223056640625 757.93359375 385.639560546875 756.2939453125 385.639560546875 754.03662109375V743.2666015625H383.079013671875V754.25C383.079013671875 757.76513671875 385.718173828125 760.25830078125 389.749912109375 760.25830078125Z" fill="#0E6F6B"/><path d="M407.104404296875 760.0H409.698642578125V751.07177734375C409.698642578125 750.20703125 409.608798828125 748.4775390625 409.507724609375 746.37744140625C410.720615234375 748.62353515625 411.360751953125 749.7802734375 412.180576171875 751.09423828125L417.829501953125 760.0H420.794345703125V743.2666015625H418.200107421875V752.7900390625C418.200107421875 753.755859375 418.245029296875 755.31689453125 418.368564453125 756.93408203125C417.627353515625 755.328125 416.874912109375 754.05908203125 416.358310546875 753.22802734375L410.058017578125 743.2666015625H407.104404296875Z" fill="#0E6F6B"/><path d="M434.060947265625 743.2666015625H431.500400390625V760.0H434.060947265625Z" fill="#0E6F6B"/><path d="M450.213779296875 760.0C455.301181640625 760.0 458.254794921875 756.84423828125 458.254794921875 751.61083984375C458.254794921875 746.4111328125 455.301181640625 743.2666015625 450.371005859375 743.2666015625H444.767001953125V760.0ZM447.327548828125 757.75390625V745.5126953125H450.202548828125C453.852451171875 745.5126953125 455.739169921875 747.68017578125 455.739169921875 751.61083984375C455.739169921875 755.5751953125 453.852451171875 757.75390625 450.067783203125 757.75390625Z" fill="#0E6F6B"/><path d="M467.085361328125 760.0H469.859287109375L471.352939453125 755.58642578125H477.933994140625L479.472568359375 760.0H482.246494140625L476.182041015625 743.2666015625H473.037509765625ZM472.082919921875 753.45263671875 473.015048828125 750.68994140625C473.430576171875 749.40966796875 473.947177734375 747.6689453125 474.598544921875 745.27685546875C475.261142578125 747.646484375 475.766513671875 749.353515625 476.215732421875 750.68994140625L477.181552734375 753.45263671875Z" fill="#0E6F6B"/><path d="M497.119052734375 760.0C502.206455078125 760.0 505.160068359375 756.84423828125 505.160068359375 751.61083984375C505.160068359375 746.4111328125 502.206455078125 743.2666015625 497.276279296875 743.2666015625H491.672275390625V760.0ZM494.232822265625 757.75390625V745.5126953125H497.107822265625C500.757724609375 745.5126953125 502.644443359375 747.68017578125 502.644443359375 751.61083984375C502.644443359375 755.5751953125 500.757724609375 757.75390625 496.973056640625 757.75390625Z" fill="#0E6F6B"/><path d="M515.2709082031249 760.0H525.8724707031249V757.798828125H517.8314550781249V752.64404296875H525.2435644531249V750.4541015625H517.8314550781249V745.4677734375H525.8050878906249V743.2666015625H515.2709082031249Z" fill="#0E6F6B"/><path d="M541.7557714843749 760.28076171875C545.6864355468749 760.28076171875 547.9549902343749 758.21435546875 547.9549902343749 755.373046875C547.9549902343749 752.35205078125 545.2709082031249 751.20654296875 543.1371191406249 750.65625L541.5087011718749 750.2294921875C540.2284277343749 749.892578125 538.4989355468749 749.29736328125 538.4989355468749 747.7138671875C538.4989355468749 746.298828125 539.7792089843749 745.265625 541.8119238281249 745.265625C543.7098730468749 745.265625 545.0687597656249 746.1416015625 545.2372167968749 747.6689453125H547.7303808593749C547.6517675781249 745.00732421875 545.3045996093749 743.0419921875 541.8680761718749 743.0419921875C538.4989355468749 743.0419921875 535.9383886718749 744.96240234375 535.9383886718749 747.85986328125C535.9383886718749 750.15087890625 537.5555761718749 751.5546875 540.2958105468749 752.28466796875L542.2499121093749 752.82373046875C544.0467871093749 753.306640625 545.4281347656249 753.87939453125 545.4281347656249 755.33935546875C545.4281347656249 756.95654296875 543.8670996093749 758.03466796875 541.7445410156249 758.03466796875C539.8129003906249 758.03466796875 538.1957128906249 757.18115234375 538.0497167968749 755.3505859375H535.4779394531249C535.6351660156249 758.4052734375 537.9935644531249 760.28076171875 541.7557714843749 760.28076171875Z" fill="#0E6F6B"/><path d="M572.818447265625 760.0H583.420009765625V757.798828125H575.378994140625V752.64404296875H582.791103515625V750.4541015625H575.378994140625V745.4677734375H583.352626953125V743.2666015625H572.818447265625Z" fill="#0E6F6B"/><path d="M593.688076171875 760.0H596.282314453125V751.07177734375C596.282314453125 750.20703125 596.192470703125 748.4775390625 596.091396484375 746.37744140625C597.304287109375 748.62353515625 597.944423828125 749.7802734375 598.764248046875 751.09423828125L604.413173828125 760.0H607.378017578125V743.2666015625H604.783779296875V752.7900390625C604.783779296875 753.755859375 604.828701171875 755.31689453125 604.952236328125 756.93408203125C604.211025390625 755.328125 603.458583984375 754.05908203125 602.941982421875 753.22802734375L596.641689453125 743.2666015625H593.688076171875Z" fill="#0E6F6B"/><path d="M632.904072265625 760.0H643.505634765625V757.798828125H635.464619140625V752.64404296875H642.876728515625V750.4541015625H635.464619140625V745.4677734375H643.438251953125V743.2666015625H632.904072265625Z" fill="#0E6F6B"/><path d="M652.538349609375 760.0H655.480732421875L658.243427734375 756.001953125C659.085712890625 754.77783203125 659.478779296875 754.1376953125 659.984150390625 753.171875C660.500751953125 754.16015625 660.871357421875 754.7890625 661.702412109375 756.001953125L664.431416015625 760.0H667.418720703125L661.489033203125 751.3525390625L667.048115234375 743.2666015625H664.139423828125L661.882099609375 746.568359375C660.961201171875 747.92724609375 660.545673828125 748.6796875 660.006611328125 749.7353515625C659.467548828125 748.66845703125 659.074482421875 747.9384765625 658.153583984375 746.568359375L655.941181640625 743.2666015625H652.965107421875L658.535419921875 751.43115234375Z" fill="#0E6F6B"/><path d="M676.889423828125 760.0H679.449970703125V754.1376953125H682.864033203125C686.749775390625 754.1376953125 688.681416015625 751.79052734375 688.681416015625 748.7021484375C688.681416015625 745.61376953125 686.761005859375 743.2666015625 682.886494140625 743.2666015625H676.889423828125ZM679.449970703125 751.97021484375V745.45654296875H682.594501953125C685.076435546875 745.45654296875 686.087177734375 746.8154296875 686.087177734375 748.7021484375C686.087177734375 750.5888671875 685.076435546875 751.97021484375 682.616962890625 751.97021484375Z" fill="#0E6F6B"/><path d="M698.646259765625 760.0H709.247822265625V757.798828125H701.206806640625V752.64404296875H708.618916015625V750.4541015625H701.206806640625V745.4677734375H709.180439453125V743.2666015625H698.646259765625Z" fill="#0E6F6B"/><path d="M719.515888671875 760.0H722.076435546875V753.67724609375H725.490498046875C725.535419921875 753.67724609375 725.591572265625 753.67724609375 725.636494140625 753.67724609375L729.028095703125 760.0H731.936787109375L728.253193359375 753.2392578125C730.285908203125 752.4755859375 731.307880859375 750.7685546875 731.307880859375 748.5224609375C731.307880859375 745.43408203125 729.387470703125 743.2666015625 725.512958984375 743.2666015625H719.515888671875ZM722.076435546875 751.4873046875V745.45654296875H725.220966796875C727.691669921875 745.45654296875 728.713642578125 746.6357421875 728.713642578125 748.5224609375C728.713642578125 750.39794921875 727.691669921875 751.4873046875 725.243427734375 751.4873046875Z" fill="#0E6F6B"/><path d="M743.979267578125 743.2666015625H741.418720703125V760.0H743.979267578125Z" fill="#0E6F6B"/><path d="M754.685322265625 760.0H765.286884765625V757.798828125H757.245869140625V752.64404296875H764.657978515625V750.4541015625H757.245869140625V745.4677734375H765.219501953125V743.2666015625H754.685322265625Z" fill="#0E6F6B"/><path d="M775.554951171875 760.0H778.149189453125V751.07177734375C778.149189453125 750.20703125 778.059345703125 748.4775390625 777.958271484375 746.37744140625C779.171162109375 748.62353515625 779.811298828125 749.7802734375 780.631123046875 751.09423828125L786.280048828125 760.0H789.244892578125V743.2666015625H786.650654296875V752.7900390625C786.650654296875 753.755859375 786.695576171875 755.31689453125 786.819111328125 756.93408203125C786.077900390625 755.328125 785.325458984375 754.05908203125 784.808857421875 753.22802734375L778.508564453125 743.2666015625H775.554951171875Z" fill="#0E6F6B"/><path d="M806.902607421875 760.224609375C810.597431640625 760.224609375 813.292744140625 757.888671875 813.809345703125 754.57568359375H811.226337890625C810.799580078125 756.70947265625 809.013935546875 757.888671875 806.925068359375 757.888671875C804.061298828125 757.888671875 801.905048828125 755.7099609375 801.905048828125 751.64453125C801.905048828125 747.6015625 804.050068359375 745.3779296875 806.925068359375 745.3779296875C809.013935546875 745.3779296875 810.799580078125 746.5458984375 811.226337890625 748.6796875H813.798115234375C813.236591796875 745.130859375 810.428974609375 743.0419921875 806.902607421875 743.0419921875C802.567646484375 743.0419921875 799.366962890625 746.2763671875 799.366962890625 751.64453125C799.366962890625 756.990234375 802.556416015625 760.224609375 806.902607421875 760.224609375Z" fill="#0E6F6B"/><path d="M826.379658203125 743.2666015625H823.819111328125V760.0H826.379658203125Z" fill="#0E6F6B"/><path d="M835.805439453125 760.0H838.579365234375L840.073017578125 755.58642578125H846.654072265625L848.192646484375 760.0H850.966572265625L844.902119140625 743.2666015625H841.757587890625ZM840.802998046875 753.45263671875 841.735126953125 750.68994140625C842.150654296875 749.40966796875 842.667255859375 747.6689453125 843.318623046875 745.27685546875C843.981220703125 747.646484375 844.486591796875 749.353515625 844.935810546875 750.68994140625L845.901630859375 753.45263671875Z" fill="#0E6F6B"/><path d="M866.007587890625 760.28076171875C869.938251953125 760.28076171875 872.206806640625 758.21435546875 872.206806640625 755.373046875C872.206806640625 752.35205078125 869.522724609375 751.20654296875 867.388935546875 750.65625L865.760517578125 750.2294921875C864.480244140625 749.892578125 862.750751953125 749.29736328125 862.750751953125 747.7138671875C862.750751953125 746.298828125 864.031025390625 745.265625 866.063740234375 745.265625C867.961689453125 745.265625 869.320576171875 746.1416015625 869.489033203125 747.6689453125H871.982197265625C871.903583984375 745.00732421875 869.556416015625 743.0419921875 866.119892578125 743.0419921875C862.750751953125 743.0419921875 860.190205078125 744.96240234375 860.190205078125 747.85986328125C860.190205078125 750.15087890625 861.807392578125 751.5546875 864.547626953125 752.28466796875L866.501728515625 752.82373046875C868.298603515625 753.306640625 869.679951171875 753.87939453125 869.679951171875 755.33935546875C869.679951171875 756.95654296875 868.118916015625 758.03466796875 865.996357421875 758.03466796875C864.064716796875 758.03466796875 862.447529296875 757.18115234375 862.301533203125 755.3505859375H859.729755859375C859.886982421875 758.4052734375 862.245380859375 760.28076171875 866.007587890625 760.28076171875Z" fill="#0E6F6B"/></svg>